<svg width="24" height="24" viewBox="0 0 24 24" fill="none" xmlns="http://www.w3.org/2000/svg">
<path d="M14.706 12.4644L10.3855 8.15157C10.3145 8.08003 10.2301 8.02324 10.1371 7.98449C10.0441 7.94573 9.9443 7.92578 9.84353 7.92578C9.74276 7.92578 9.64299 7.94573 9.54997 7.98449C9.45695 8.02324 9.37252 8.08003 9.30156 8.15157C9.15939 8.29459 9.07959 8.48806 9.07959 8.68972C9.07959 8.89139 9.15939 9.08485 9.30156 9.22787L13.0801 13.0445L9.30156 16.823C9.15939 16.9661 9.07959 17.1595 9.07959 17.3612C9.07959 17.5629 9.15939 17.7563 9.30156 17.8993C9.37226 17.9715 9.45656 18.0288 9.5496 18.0682C9.64263 18.1075 9.74253 18.1279 9.84353 18.1283C9.94452 18.1279 10.0444 18.1075 10.1375 18.0682C10.2305 18.0288 10.3148 17.9715 10.3855 17.8993L14.706 13.5865C14.7834 13.515 14.8453 13.4283 14.8876 13.3317C14.9299 13.2352 14.9517 13.1309 14.9517 13.0255C14.9517 12.92 14.9299 12.8158 14.8876 12.7192C14.8453 12.6226 14.7834 12.5359 14.706 12.4644Z" fill="#00984A"/>
</svg>
