<svg width="19" height="19" viewBox="0 0 19 19" fill="none" xmlns="http://www.w3.org/2000/svg">
<path d="M8.79252 0C7.36752 0 3.84252 0.15 1.96752 1.95C0.617518 3.225 0.0925182 5.175 0.0175182 7.5C-0.132482 11.175 0.692518 13.5 2.04252 14.7C2.34252 14.925 3.09252 15.525 4.51752 15.975V17.85C4.51752 17.85 4.51752 18.6 4.96752 18.75C5.04252 18.75 5.11752 18.825 5.19252 18.825C5.64252 18.825 6.01752 18.3 6.54252 17.775C6.99252 17.25 7.36752 16.875 7.59252 16.5H9.24252C10.6675 16.5 14.1925 16.35 16.0675 14.55C17.4175 13.2 17.9425 11.25 17.9425 8.775C18.0175 8.4 18.0175 7.95 18.0175 7.5C17.9425 4.725 17.1175 2.85 15.9925 1.8C15.5425 1.425 13.5925 0 9.39252 0H8.79252ZM8.64252 1.425H9.31752C13.2925 1.425 14.7925 2.7 14.9425 2.85C15.8425 3.6 16.3675 5.25 16.4425 7.425V7.725C16.5175 8.175 16.5175 8.55 16.5175 8.775C16.4425 11.025 15.9925 12.525 15.0925 13.5C13.5175 14.925 10.2175 15 9.31752 15H7.89252L6.69252 16.35L5.94252 17.175L5.79252 17.4C5.64252 17.55 5.41752 17.85 5.26752 17.925V14.55C3.76752 14.175 3.16752 13.65 3.01752 13.5C1.96752 12.6 1.36752 10.425 1.51752 7.5V6.75C1.66752 4.95 2.11752 3.75 2.86752 2.925C4.44252 1.5 7.74252 1.425 8.64252 1.425ZM8.56752 3.075C8.19252 3.075 8.19252 3.6 8.56752 3.6C11.3425 3.6 13.7425 5.475 13.7425 9C13.7425 9.375 14.2675 9.375 14.2675 9C14.2675 5.175 11.7175 3 8.56752 3.075ZM5.59527 3.76875C5.42533 3.74838 5.25417 3.79521 5.11827 3.89925C4.36827 4.27425 3.61752 5.02575 3.84252 5.85075C3.84252 5.85075 3.99252 6.525 4.81752 7.95C5.26752 8.625 5.64252 9.225 6.01752 9.675C6.39252 10.2 6.99252 10.8 7.59252 11.25C8.79252 12.225 10.6675 13.2 11.4925 13.425C12.2425 13.65 13.0675 12.9 13.4425 12.15C13.5925 11.85 13.5175 11.475 13.2175 11.25C12.7675 10.8 12.0175 10.275 11.4925 9.975C11.1175 9.75 10.6675 9.9 10.5175 10.125L10.1425 10.575C9.99252 10.8 9.61752 10.8 9.61752 10.8C7.14252 10.125 6.46752 7.575 6.46752 7.575C6.46752 7.575 6.46752 7.275 6.69252 7.05L7.14252 6.675C7.36752 6.525 7.51752 6.075 7.29252 5.7C7.14252 5.475 6.91752 5.025 6.69252 4.8C6.46752 4.5 6.01752 3.975 6.01752 3.975C5.90373 3.86106 5.75509 3.78845 5.59527 3.76875ZM9.09252 4.575C8.71752 4.5 8.64252 5.1 9.01752 5.1C11.1175 5.25 12.3175 6.675 12.2425 8.475C12.1675 8.85 12.7675 8.85 12.7675 8.475C12.8425 6.375 11.4925 4.65 9.09252 4.575ZM9.31752 6C8.94252 5.925 8.94252 6.525 9.31752 6.525C10.2175 6.525 10.6675 7.05 10.6675 7.95C10.7425 8.325 11.2675 8.325 11.2675 7.95C11.1925 6.75 10.5175 6 9.31752 6Z" fill="white"/>
</svg>
