<svg width="48" height="48" viewBox="0 0 48 48" fill="none" xmlns="http://www.w3.org/2000/svg">
<rect x="0.5" y="0.5" width="47" height="47" rx="23.5" stroke="white"/>
<path d="M23.7749 15C22.3499 15 18.8249 15.15 16.9499 16.95C15.5999 18.225 15.0749 20.175 14.9999 22.5C14.8499 26.175 15.6749 28.5 17.0249 29.7C17.3249 29.925 18.0749 30.525 19.4999 30.975V32.85C19.4999 32.85 19.4999 33.6 19.9499 33.75C20.0249 33.75 20.0999 33.825 20.1749 33.825C20.6249 33.825 20.9999 33.3 21.5249 32.775C21.9749 32.25 22.3499 31.875 22.5749 31.5H24.2249C25.6499 31.5 29.1749 31.35 31.0499 29.55C32.3999 28.2 32.9249 26.25 32.9249 23.775C32.9999 23.4 32.9999 22.95 32.9999 22.5C32.9249 19.725 32.0999 17.85 30.9749 16.8C30.5249 16.425 28.5749 15 24.3749 15H23.7749ZM23.6249 16.425H24.2999C28.2749 16.425 29.7749 17.7 29.9249 17.85C30.8249 18.6 31.3499 20.25 31.4249 22.425V22.725C31.4999 23.175 31.4999 23.55 31.4999 23.775C31.4249 26.025 30.9749 27.525 30.0749 28.5C28.4999 29.925 25.1999 30 24.2999 30H22.8749L21.6749 31.35L20.9249 32.175L20.7749 32.4C20.6249 32.55 20.3999 32.85 20.2499 32.925V29.55C18.7499 29.175 18.1499 28.65 17.9999 28.5C16.9499 27.6 16.3499 25.425 16.4999 22.5V21.75C16.6499 19.95 17.0999 18.75 17.8499 17.925C19.4249 16.5 22.7249 16.425 23.6249 16.425ZM23.5499 18.075C23.1749 18.075 23.1749 18.6 23.5499 18.6C26.3249 18.6 28.7249 20.475 28.7249 24C28.7249 24.375 29.2499 24.375 29.2499 24C29.2499 20.175 26.6999 18 23.5499 18.075ZM20.5777 18.7687C20.4078 18.7484 20.2366 18.7952 20.1007 18.8993C19.3507 19.2743 18.5999 20.0257 18.8249 20.8507C18.8249 20.8507 18.9749 21.525 19.7999 22.95C20.2499 23.625 20.6249 24.225 20.9999 24.675C21.3749 25.2 21.9749 25.8 22.5749 26.25C23.7749 27.225 25.6499 28.2 26.4749 28.425C27.2249 28.65 28.0499 27.9 28.4249 27.15C28.5749 26.85 28.4999 26.475 28.1999 26.25C27.7499 25.8 26.9999 25.275 26.4749 24.975C26.0999 24.75 25.6499 24.9 25.4999 25.125L25.1249 25.575C24.9749 25.8 24.5999 25.8 24.5999 25.8C22.1249 25.125 21.4499 22.575 21.4499 22.575C21.4499 22.575 21.4499 22.275 21.6749 22.05L22.1249 21.675C22.3499 21.525 22.4999 21.075 22.2749 20.7C22.1249 20.475 21.8999 20.025 21.6749 19.8C21.4499 19.5 20.9999 18.975 20.9999 18.975C20.8861 18.8611 20.7375 18.7885 20.5777 18.7687ZM24.0749 19.575C23.6999 19.5 23.6249 20.1 23.9999 20.1C26.0999 20.25 27.2999 21.675 27.2249 23.475C27.1499 23.85 27.7499 23.85 27.7499 23.475C27.8249 21.375 26.4749 19.65 24.0749 19.575ZM24.2999 21C23.9249 20.925 23.9249 21.525 24.2999 21.525C25.1999 21.525 25.6499 22.05 25.6499 22.95C25.7249 23.325 26.2499 23.325 26.2499 22.95C26.1749 21.75 25.4999 21 24.2999 21Z" fill="white"/>
</svg>
